HIERARCHY
ROOT Hips
{
  OFFSET 43.0842 91.1655 101.099
  CHANNELS 6 Xposition Yposition Zposition Zrotation Xrotation Yrotation
  JOINT LeftUpLeg
  {
    OFFSET 8.64259 1.95398 -2.38835
    CHANNELS 3 Zrotation Xrotation Yrotation
    JOINT LeftLeg
    {
      OFFSET 43.7702 0 0
      CHANNELS 3 Zrotation Xrotation Yrotation
      JOINT LeftFoot
      {
        OFFSET 40.6238 0 0
        CHANNELS 3 Zrotation Xrotation Yrotation
        JOINT LeftToeBase
        {
          OFFSET 12.7242 0 0
          CHANNELS 3 Zrotation Xrotation Yrotation
          End Site
          {
            OFFSET 0 0 0
          }
        }
      }
    }
  }
  JOINT RightUpLeg
  {
    OFFSET -8.2249 1.95398 -2.59336
    CHANNELS 3 Zrotation Xrotation Yrotation
    JOINT RightLeg
    {
      OFFSET 43.5653 0 0
      CHANNELS 3 Zrotation Xrotation Yrotation
      JOINT RightFoot
      {
        OFFSET 40.6238 0 0
        CHANNELS 3 Zrotation Xrotation Yrotation
        JOINT RightToeBase
        {
          OFFSET 12.7242 0 0
          CHANNELS 3 Zrotation Xrotation Yrotation
          End Site
          {
            OFFSET 0 0 0
          }
        }
      }
    }
  }
  JOINT Spine
  {
    OFFSET 0.165834 0.87714 6.61349
    CHANNELS 3 Zrotation Xrotation Yrotation
    JOINT Spine1
    {
      OFFSET 7.38963 1.71661e-005 0
      CHANNELS 3 Zrotation Xrotation Yrotation
      JOINT Spine2
      {
        OFFSET 11.9445 1.14441e-005 0
        CHANNELS 3 Zrotation Xrotation Yrotation
        JOINT Spine3
        {
          OFFSET 14.7254 4.19617e-005 0
          CHANNELS 3 Zrotation Xrotation Yrotation
          JOINT Spine4
          {
            OFFSET 10.9679 0 0
            CHANNELS 3 Zrotation Xrotation Yrotation
            JOINT RightShoulder
            {
              OFFSET 2.46616 -1.6653 3.69651
              CHANNELS 3 Zrotation Xrotation Yrotation
              JOINT RightArm
              {
                OFFSET 13.0012 0 0
                CHANNELS 3 Zrotation Xrotation Yrotation
                JOINT RightForeArm
                {
                  OFFSET 28.7848 1.52588e-005 0
                  CHANNELS 3 Zrotation Xrotation Yrotation
                  JOINT RightHand
                  {
                    OFFSET 26.5688 1.52588e-005 0
                    CHANNELS 3 Zrotation Xrotation Yrotation
                    End Site
                    {
                      OFFSET 0 0 0
                    }
                  }
                }
              }
            }
            JOINT LeftShoulder
            {
              OFFSET 2.38034 -1.29275 -3.7523
              CHANNELS 3 Zrotation Xrotation Yrotation
              JOINT LeftArm
              {
                OFFSET 16.3182 6.10351e-005 0
                CHANNELS 3 Zrotation Xrotation Yrotation
                JOINT LeftForeArm
                {
                  OFFSET 27.0901 0 0
                  CHANNELS 3 Zrotation Xrotation Yrotation
                  JOINT LeftHand
                  {
                    OFFSET 24.5451 1.52588e-005 0
                    CHANNELS 3 Zrotation Xrotation Yrotation
                    End Site
                    {
                      OFFSET 0 0 0
                    }
                  }
                }
              }
            }
            JOINT Neck
            {
              OFFSET 5.0226 -0.0266342 0
              CHANNELS 3 Zrotation Xrotation Yrotation
              JOINT Head
              {
                OFFSET 6.69364 2.86102e-005 0
                CHANNELS 3 Zrotation Xrotation Yrotation
                End Site
                {
                  OFFSET 0 0 0
                }
              }
            }
          }
        }
      }
    }
  }
}
MOTION
Frames:	17
Frame Time:	0.0333333
-9.11259 85.059 -52.6265 94.7109 11.1864 91.7943 -169.828 17.9295 104.792 -54.7538 25.7287 -1.43955 69.5119 6.83418 21.2711 39.6001 11.829 3.78757 176.55 5.05463 67.1115 173.338 17.6085 -175.109 94.8213 -19.6321 -95.2773 45.6049 8.19544 -63.495 -0.13974 7.48485 -89.3016 11.9018 0.051055 1.38738 0.230079 0.112082 1.38378 -22.2994 -0.368228 1.33861 -2.28678 -0.368219 1.33861 90.7865 -57.243 -98.1468 4.10245 18.9508 -22.3626 -16.1905 15.1168 -61.6066 -7.30636 -0.977432 -2.12305 -96.8034 -50.9296 68.9541 -0.555975 19.2978 -63.1561 12.1944 6.83806 -100.926 9.45328 0.803387 0.668332 -25.0963 -23.5299 -10.5178 -1.56594 -25.1856 -21.6853 
-9.14908 85.0474 -52.5886 94.6995 11.0847 91.8577 -169.822 17.9818 104.827 -54.7551 25.3649 -1.44402 69.5802 6.86837 21.1848 39.5884 11.8251 3.76011 176.683 5.11051 67.1755 173.295 18.1892 -175.1 94.9218 -19.9889 -95.5307 45.7002 8.07104 -63.5801 -0.136057 7.46982 -89.309 11.9318 0.0550951 1.37218 0.260112 0.115419 1.36842 -22.2695 -0.359823 1.32532 -2.25686 -0.359824 1.32531 90.8086 -56.9278 -98.1755 4.40161 18.7656 -22.3373 -15.675 15.4469 -61.7611 -7.56672 -1.05622 -2.34838 -96.9361 -51.0432 68.7976 -0.323998 19.3994 -63.0461 12.1601 6.59403 -101.08 9.2092 0.74372 0.862985 -25.3436 -23.5142 -10.3498 -1.31755 -25.2337 -21.9545 
-9.20575 85.0397 -52.5633 94.8411 10.9855 91.8492 -169.862 17.8722 104.9 -54.7836 25.3742 -1.36023 69.5741 6.92346 21.3746 39.6042 11.9642 3.44954 176.703 5.02073 67.2059 173.373 17.486 -175.14 95.0004 -19.8621 -94.8811 45.6274 8.35924 -63.8959 -0.107774 7.46769 -89.2615 11.9354 0.133772 1.45853 0.263651 0.197812 1.45123 -22.2651 -0.310739 1.43132 -2.25248 -0.310739 1.43132 90.6818 -57.8081 -98.1874 3.56042 18.4334 -22.1515 -15.3787 15.8157 -61.8733 -7.72737 -1.10626 -2.51461 -96.5662 -50.4384 69.1439 -0.609916 19.6781 -63.4124 12.1946 6.83985 -100.703 9.91291 0.864107 0.744197 -25.8418 -23.2943 -11.5271 -0.631627 -25.2581 -21.3246 
-9.22773 85.0315 -52.5611 94.9121 10.911 91.8233 -169.813 17.7736 104.85 -54.8063 25.4904 -1.36628 69.5975 6.99956 21.2685 39.4169 11.5431 3.93631 176.628 5.00336 67.2114 173.458 16.5699 -175.182 94.9286 -19.099 -94.4031 45.4186 8.58236 -63.6146 -0.107201 7.47061 -89.2464 11.9293 0.142009 1.48776 0.257504 0.207332 1.48007 -22.271 -0.311634 1.46167 -2.25835 -0.311648 1.46167 90.656 -57.8446 -98.2164 3.36469 18.2341 -22.274 -14.5378 16.3766 -62.0893 -7.48801 -1.03963 -2.39132 -96.2886 -50.2223 69.4818 -0.898095 19.7185 -63.5838 12.3187 6.9708 -100.604 10.2517 0.92809 0.628272 -25.5043 -23.3102 -11.4831 -0.71381 -25.2062 -20.9523 
-9.2533 85.0407 -52.5493 95.0703 10.999 91.8422 -169.841 17.6883 104.911 -54.8457 25.6877 -1.29427 69.5026 6.86567 21.5753 39.5446 11.8274 3.61434 176.552 4.91355 67.2448 173.315 17.8747 -175.107 94.9349 -19.8929 -95.1335 45.6083 8.36199 -63.8369 -0.112918 7.48366 -89.2466 11.9033 0.130312 1.48854 0.231513 0.195698 1.48136 -22.297 -0.32302 1.45891 -2.28436 -0.32304 1.4589 90.6134 -57.8852 -98.2687 3.1269 18.0336 -22.3123 -15.05 16.0546 -61.9345 -7.90885 -1.10403 -1.76218 -96.2796 -50.2495 69.5032 -0.928421 19.7174 -63.6798 12.438 7.08518 -100.435 10.4888 0.990942 0.365871 -25.4747 -23.3782 -11.188 -1.01602 -25.2077 -21.2473 
-9.29533 85.0308 -52.5323 95.233 11.0319 91.8461 -169.821 17.6223 104.934 -54.9603 25.6029 -1.23986 69.5059 6.87899 21.4628 39.5211 11.7341 3.77948 176.492 4.78405 67.2803 173.321 17.7974 -175.116 94.9438 -19.7804 -95.0662 45.5758 8.41985 -63.8378 -0.111914 7.49316 -89.2452 11.8839 0.132841 1.49107 0.212113 0.198347 1.48377 -22.3164 -0.321373 1.46208 -2.30372 -0.321372 1.46207 90.6626 -57.7621 -98.2229 3.26515 18.0414 -22.3186 -15.2534 15.7603 -61.9007 -7.92328 -1.10119 -1.66731 -96.4788 -50.4008 69.2597 -0.756487 19.6102 -63.5511 12.2259 7.05262 -100.629 10.047 0.902433 0.57629 -25.5768 -23.2961 -10.8333 -0.897984 -25.1379 -21.5689 
-9.34786 84.9921 -52.493 95.3377 11.1036 91.8531 -169.848 17.595 105.026 -55.0497 26.0198 -1.16906 69.5788 7.20085 21.7013 39.3435 11.506 3.79672 176.459 4.65351 67.322 173.43 16.7771 -175.182 94.9771 -19.2644 -94.4946 45.4952 8.59799 -63.9079 -0.128466 7.49196 -89.2198 11.8925 0.111999 1.54317 0.220661 0.179774 1.53674 -22.3074 -0.356924 1.50551 -2.29474 -0.356936 1.5055 90.5774 -57.9771 -98.3015 3.10578 17.7149 -22.3095 -15.1856 15.8724 -61.8483 -7.90193 -1.0979 -1.69983 -96.2474 -50.1758 69.5273 -1.21856 19.4672 -63.2412 12.3028 7.34899 -100.879 10.0965 0.876313 0.894563 -25.2735 -22.7863 -10.8418 -0.75842 -24.5893 -20.4908 
-9.40774 84.9599 -52.4819 95.2914 11.1272 91.8191 -169.876 17.7024 104.969 -55.1265 26.081 -1.18429 69.5879 7.23782 21.8058 39.2659 11.4436 3.70975 176.487 4.71955 67.2562 173.453 16.6848 -175.211 95.0617 -19.2874 -94.4438 45.4702 8.58902 -63.8046 -0.113991 7.49369 -89.259 11.8846 0.122252 1.46455 0.212873 0.186589 1.45774 -22.3159 -0.323514 1.4336 -2.30322 -0.323512 1.43359 90.8327 -57.2832 -98.0739 3.5007 17.7865 -22.2899 -15.3478 15.7323 -61.9472 -7.77501 -1.07537 -1.85157 -96.946 -50.8925 68.7359 -0.696736 19.1462 -63.1527 11.6639 7.4285 -100.914 10.6247 0.965824 0.806376 -24.334 -21.8756 -9.8014 -0.0515894 -23.5903 -20.0052 
-9.46744 84.9244 -52.4772 95.2817 11.2148 91.8346 -169.91 17.7639 104.966 -55.1732 26.1011 -1.13378 69.676 7.45983 21.6643 39.2073 11.3521 3.7565 176.491 4.67025 67.2717 173.564 15.6025 -175.271 95.0684 -18.7696 -93.8685 45.3083 8.86062 -63.7779 -0.0870084 7.49467 -89.2803 11.8812 0.165828 1.41741 0.209492 0.228046 1.40874 -22.3196 -0.26778 1.40173 -2.30694 -0.26779 1.40173 91.0322 -57.2189 -97.8045 3.65474 18.4294 -22.2731 -15.4385 14.8924 -62.4133 -8.3426 -1.16674 -0.972407 -97.2141 -51.137 68.4254 -0.715696 18.9032 -63.1478 11.7729 7.63905 -100.94 10.9783 1.01223 0.881384 -23.3337 -20.5529 -9.13101 1.16938 -22.262 -19.0625 
-9.55441 84.91 -52.4812 95.38 11.3268 91.7539 -169.808 17.7769 104.962 -55.0995 25.9016 -1.21902 69.7762 7.69789 21.5833 39.2497 11.41 3.74328 176.407 4.63445 67.1819 173.547 15.7948 -175.271 95.1183 -18.967 -93.9827 45.3259 8.88903 -63.8927 -0.0923893 7.50595 -89.2956 11.859 0.147843 1.3889 0.187335 0.208817 1.38104 -22.342 -0.276389 1.36913 -2.32935 -0.276399 1.36913 91.0565 -56.8882 -97.8316 4.01219 18.5432 -22.2625 -14.7379 15.2953 -62.4966 -8.40959 -1.21038 -1.44455 -97.1191 -51.2717 68.6058 -0.896964 18.919 -62.9727 11.8523 7.51476 -100.925 10.031 0.88966 0.678937 -21.9129 -19.4262 -7.71421 1.22863 -20.9204 -18.8391 
-9.62922 84.8824 -52.4615 95.3799 11.3669 91.6751 -169.813 17.8368 104.932 -55.1039 25.7927 -1.2526 69.8591 7.87349 21.7182 39.2359 11.5741 3.2835 176.42 4.67903 67.0921 173.532 16.0799 -175.27 95.153 -18.948 -94.2314 45.3808 8.76582 -63.8419 -0.0769911 7.49876 -89.3148 11.8734 0.169597 1.3482 0.201762 0.228757 1.33942 -22.3279 -0.243413 1.33684 -2.31524 -0.243398 1.33684 90.993 -56.5774 -97.9797 4.05105 18.4724 -21.8517 -14.9568 15.3412 -62.3613 -8.01416 -1.13701 -1.8782 -97.3281 -51.5091 68.3806 -0.343668 19.2836 -62.9678 12.1483 6.63675 -100.73 9.51488 0.846309 0.36629 -21.198 -18.6375 -6.38096 1.26762 -20.0203 -18.9804 
-9.682 84.8862 -52.4745 95.5356 11.4881 91.5437 -169.722 17.7593 104.901 -55.0685 25.7461 -1.32587 69.9668 8.139 21.8254 39.0898 11.5123 2.98043 176.378 4.47221 66.9778 173.583 15.6213 -175.271 95.0486 -18.519 -94.0889 45.3083 8.78291 -63.6278 -0.0558332 7.51559 -89.3184 11.8395 0.209612 1.33682 0.167908 0.26825 1.3263 -22.3618 -0.201813 1.33802 -2.34914 -0.201782 1.33803 90.9508 -56.4738 -98.0594 4.26919 18.873 -21.4742 -15.0646 14.9088 -62.5223 -7.88518 -1.07268 -1.36373 -97.4763 -51.5164 68.1697 -0.388961 19.1913 -62.7303 11.914 6.83159 -100.781 9.73411 0.885028 0.310485 -21.2099 -18.2284 -5.87557 1.70015 -19.6498 -18.8683 
-9.75684 84.8878 -52.4742 95.5444 11.431 91.4807 -169.667 17.8171 104.895 -55.0757 25.75 -1.42309 69.9263 8.02173 21.8023 39.2484 11.8411 2.63404 176.409 4.55832 66.9094 173.578 15.7881 -175.274 95.1131 -18.6158 -94.1769 45.2889 8.86709 -63.7245 -0.0396722 7.52465 -89.322 11.8213 0.240471 1.32624 0.149676 0.298584 1.31437 -22.3801 -0.169233 1.33719 -2.36743 -0.169206 1.33719 90.9076 -56.63 -98.0912 4.17078 18.8195 -21.3964 -14.6997 15.1248 -62.5293 -7.8272 -1.08444 -1.7809 -97.3595 -51.5671 68.354 -0.362143 19.1258 -62.7035 11.914 6.86339 -100.882 9.92409 0.921279 0.235269 -21.1639 -18.026 -5.60101 2.1459 -19.4814 -18.522 
-9.8913 84.8531 -52.4904 95.433 11.4238 91.3396 -169.752 17.9308 104.652 -55.1194 25.7695 -1.45671 69.981 8.11315 21.8015 39.3393 11.9037 2.7598 176.36 4.83282 66.7023 173.547 16.2312 -175.282 95.2359 -18.8501 -94.33 45.29 8.84799 -63.6917 -0.0285621 7.52381 -89.3202 11.8228 0.263092 1.32741 0.151187 0.321279 1.31454 -22.3785 -0.147988 1.34511 -2.3659 -0.14797 1.34511 90.9987 -56.3494 -98.0147 4.50456 18.5703 -21.4276 -14.6002 15.2594 -62.4124 -8.42526 -1.24732 -2.02002 -97.271 -51.4881 68.456 -0.349617 19.0423 -62.8204 11.5345 6.75601 -100.763 10.0144 0.930568 0.272645 -21.044 -17.9376 -5.21431 2.09305 -19.3613 -18.5192 
-9.99783 84.8187 -52.4905 95.2845 11.5995 91.3824 -169.805 18.2056 104.578 -55.1967 25.6567 -1.44008 69.9146 7.9721 21.3383 39.523 12.0106 3.06745 176.287 4.88228 66.7298 173.747 14.0392 -175.395 95.2017 -17.9339 -93.0091 45.0317 9.35895 -63.7972 -0.0346872 7.51161 -89.3462 11.8475 0.238645 1.27823 0.175993 0.294689 1.26648 -22.3541 -0.156536 1.29086 -2.34149 -0.156502 1.29086 90.9666 -56.2021 -98.0884 4.4817 18.4058 -21.3134 -14.2142 15.6383 -62.4992 -8.48 -1.26255 -2.04791 -97.3956 -51.5364 68.2922 -0.274983 18.8763 -62.7849 11.2617 6.79145 -100.753 10.1655 0.934465 0.44604 -21.1249 -17.912 -4.84196 2.07655 -19.3353 -18.7425 
-10.0627 84.7627 -52.5109 95.3091 11.6227 91.3066 -169.733 18.2137 104.485 -55.2131 25.5152 -1.48269 69.9627 8.0685 21.26 39.5547 12.1096 2.90975 176.167 4.96909 66.602 173.721 14.3663 -175.409 95.3054 -18.0886 -93.0739 45.0502 9.3077 -63.7635 -0.037873 7.51093 -89.3431 11.8489 0.233884 1.28499 0.177346 0.290232 1.27345 -22.3528 -0.163095 1.29588 -2.3401 -0.163072 1.29588 90.7777 -56.4625 -98.3082 4.3122 18.7158 -21.2599 -15.6773 14.5017 -62.1796 -7.96711 -1.11994 -1.79204 -97.3921 -51.4668 68.2747 -0.446333 18.6869 -62.6782 11.2376 7.03046 -100.903 10.2311 0.954752 0.34703 -21.6305 -17.7307 -5.14674 2.68603 -19.2661 -18.2966 
-10.1119 84.689 -52.5453 95.2905 11.4869 91.0722 -169.698 18.1534 104.21 -55.2045 24.9768 -1.58602 70.2438 8.495 21.1106 39.4023 11.962 2.80799 176.098 5.24192 66.2747 173.642 15.6479 -175.428 95.6769 -18.7806 -93.507 45.289 8.80677 -63.6082 -0.0189584 7.5136 -89.3236 11.8431 0.280509 1.31894 0.17152 0.338259 1.30532 -22.3583 -0.128828 1.34227 -2.34563 -0.12884 1.34226 90.7227 -56.5696 -98.3659 4.19205 18.3032 -21.1916 -14.5188 15.7273 -62.2431 -8.16591 -1.23419 -2.88395 -97.3481 -51.3947 68.3149 -0.602583 18.5031 -62.7548 10.6779 7.46479 -100.719 10.7204 1.05111 0.107295 -21.8905 -17.6165 -5.45442 3.37268 -19.2605 -17.9262 
